<?xml version="1.0" encoding="iso-8859-1"?>
<!-- Generator: Adobe Illustrator 19.0.0, SVG Export Plug-In . SVG Version: 6.00 Build 0)  -->
<svg version="1.1" id="Capa_1" xmlns="http://www.w3.org/2000/svg" xmlns:xlink="http://www.w3.org/1999/xlink" x="0px" y="0px"
	 viewBox="0 0 512.002 512.002" style="enable-background:new 0 0 512.002 512.002;" xml:space="preserve">
<path style="fill:#FED42D;" d="M502.251,196.001l-115.31,134.53c-35.612,41.529-87.537,65.47-142.34,65.47h-34.35
	c-66.264,0-120-53.718-120-120c0-22.09,17.91-40,40-40c7.011,0,171.375,0,179.89,0c47.02,0,92.99-13.92,132.11-40H502.251z"/>
<g>
	<path style="fill:#FEA832;" d="M332.251,456.001h-232l7.15-2.86c30.67-12.27,55.56-34.07,71.83-61.19v-0.01
		c9.89,2.65,20.29,4.06,31.02,4.06h34.35c3.7,0,7.38-0.11,11.05-0.33l0.01,0.13c16.27,25.33,40.23,45.66,69.44,57.34
		L332.251,456.001z"/>
	<path style="fill:#FEA832;" d="M289.221,232.921l1.03,3.08h-160l1.03-3.08c11.33-33.99,43.14-56.92,78.97-56.92
		S277.881,198.92,289.221,232.921z"/>
</g>
<rect x="181.97" y="107.713" transform="matrix(-0.7071 0.7071 -0.7071 -0.7071 455.0918 83.4905)" style="fill:#FED42D;" width="56.569" height="56.569"/>
<path d="M250.001,346.001c-5.52,0-10,4.48-10,10s4.48,10,10,10s10-4.48,10-10C260.001,350.481,255.521,346.001,250.001,346.001z"/>
<path d="M394.284,337.039l115.31-134.53c2.542-2.965,3.124-7.139,1.492-10.687c-1.632-3.548-5.18-5.821-9.085-5.821h-60
	c-1.974,0-3.904,0.584-5.547,1.68c-37.604,25.069-81.369,38.32-126.563,38.32h-12.78c-11.355-29.814-36.642-50.634-65.486-57.482
	l25.447-25.447c3.905-3.905,3.905-10.237,0-14.143l-40-40c-3.905-3.904-10.237-3.904-14.143,0l-40,40
	c-3.905,3.905-3.905,10.237,0,14.143l25.459,25.459c-29.824,7.08-54.683,28.55-65.701,58.01
	c-13.318,1.961-24.945,9.187-32.687,19.495c-9.13-12.156-23.661-20.035-40-20.035h-1.19c-26.914,0-48.81,21.892-48.81,48.8v1
	c0,28.047,19.867,52.374,47.242,57.847c5.557,1.109,11.305,2.259,16.946,3.39c7.445,1.489,13.627,6.253,16.962,13.069
	c3.335,6.819,3.301,14.628-0.095,21.425c-2.469,4.939-0.465,10.946,4.475,13.415c4.941,2.468,10.947,0.465,13.416-4.476
	c5.11-10.224,6.044-21.703,2.814-32.397c14.947,22.343,36.467,39.626,61.596,49.286c-15.184,20.66-36.069,36.955-59.92,46.497
	l-7.15,2.86c-4.451,1.78-7.012,6.469-6.105,11.176c0.906,4.707,5.026,8.108,9.819,8.108h232c4.793,0,8.913-3.401,9.819-8.108
	c0.907-4.707-1.654-9.396-6.105-11.176l-7.151-2.861c-21.584-8.63-40.314-22.33-54.936-40.039
	C320.506,396.807,363.295,373.174,394.284,337.039z M210.001,110.144l25.858,25.857l-25.858,25.858l-25.858-25.857L210.001,110.144z
	 M210.001,186.001c28.751,0,53.373,16.559,65.273,40H144.73C157.079,201.701,182.117,186.001,210.001,186.001z M68.117,317.427
	c-5.643-1.132-11.395-2.281-16.956-3.392c-18.055-3.609-31.16-19.689-31.16-38.234v-1c0-15.88,12.924-28.8,28.81-28.8h1.19
	c16.542,0,30,13.458,30,30c0,19.328,4.194,38.007,12.14,55.005C85.888,324.095,77.559,319.316,68.117,317.427z M290.362,446.001
	H141.5c16.563-11.395,30.938-25.923,42.118-42.701c8.638,1.786,17.481,2.701,26.383,2.701h34.35c1.928,0,3.867-0.029,5.804-0.087
	C261.13,421.745,274.713,435.266,290.362,446.001z M244.351,386.001h-34.35c-60.236,0-110-48.702-110-110c0-16.542,13.458-30,30-30
	c7.011,0,171.375,0,179.89,0c48.135,0,94.782-13.822,135.104-40h35.264L379.1,324.022
	C345.786,362.863,296.909,386.001,244.351,386.001z"/>
<path d="M210.001,346.001c-38.598,0-70-31.402-70-70c0-5.522-4.477-10-10-10s-10,4.478-10,10c0,49.626,40.374,90,90,90
	c5.523,0,10-4.478,10-10S215.524,346.001,210.001,346.001z"/>
<path d="M446.846,104.323c9.491-6.324,15.157-16.912,15.157-28.321s-5.667-21.997-15.157-28.321
	c-4.595-3.062-10.804-1.819-13.867,2.775c-3.063,4.596-1.82,10.805,2.776,13.867c3.971,2.646,6.248,6.903,6.248,11.679
	s-2.277,9.032-6.246,11.677c-9.497,6.324-15.167,16.913-15.167,28.323s5.67,21.999,15.167,28.323
	c4.626,3.08,10.825,1.787,13.866-2.78c3.061-4.597,1.816-10.805-2.78-13.866c-3.974-2.646-6.253-6.902-6.253-11.677
	S442.87,106.971,446.846,104.323z"/>
<path d="M496.846,47.68c-4.595-3.062-10.804-1.819-13.867,2.775c-3.063,4.596-1.82,10.805,2.776,13.867
	c3.971,2.646,6.248,6.903,6.248,11.679s-2.277,9.032-6.246,11.677c-9.497,6.324-15.167,16.913-15.167,28.323
	s5.67,21.999,15.167,28.323c4.626,3.08,10.825,1.787,13.866-2.78c3.061-4.597,1.816-10.805-2.78-13.866
	c-3.974-2.646-6.253-6.902-6.253-11.677s2.279-9.03,6.255-11.679c9.491-6.324,15.157-16.912,15.157-28.321
	S506.337,54.004,496.846,47.68z"/>
<g>
</g>
<g>
</g>
<g>
</g>
<g>
</g>
<g>
</g>
<g>
</g>
<g>
</g>
<g>
</g>
<g>
</g>
<g>
</g>
<g>
</g>
<g>
</g>
<g>
</g>
<g>
</g>
<g>
</g>
</svg>
