<svg xmlns="http://www.w3.org/2000/svg" xmlns:xlink="http://www.w3.org/1999/xlink" xmlns:lucid="lucid" width="1080" height="1498.02"><g transform="translate(-140 -280)" lucid:page-tab-id="0_0"><path d="M219.75 970.75c0 10.9-8.84 19.75-19.75 19.75-10.9 0-19.75-8.84-19.75-19.75 0-10.9 8.84-19.75 19.75-19.75 10.9 0 19.75 8.85 19.75 19.75z" stroke="#000" stroke-width="2" fill="#fff"/><path d="M160 951h80v158h-80z" fill="none"/><path d="M200 990.5v55.3l40 63.2m-40-63.2l-40 63.2m0-98.75h80" stroke="#000" stroke-width="2" fill="none"/><use xlink:href="#a" transform="matrix(1,0,0,1,80,1109.0032557154927) translate(94.07499999999999 14.6)"/><path d="M484 660c0 33.14-35.82 60-80 60s-80-26.86-80-60 35.82-60 80-60 80 26.86 80 60z" stroke="#000" stroke-width="2" fill="#fff"/><use xlink:href="#b" transform="matrix(1,0,0,1,324.0000355305665,600) translate(41.05499999999999 51.9)"/><use xlink:href="#c" transform="matrix(1,0,0,1,324.0000355305665,600) translate(28.054999999999993 73.5)"/><path d="M480 1402c0 33.14-35.82 60-80 60s-80-26.86-80-60c0-33.13 35.82-60 80-60s80 26.87 80 60z" stroke="#000" stroke-width="2" fill="#fff"/><use xlink:href="#d" transform="matrix(1,0,0,1,320,1342.0065113178862) translate(41.05499999999999 51.9)"/><use xlink:href="#e" transform="matrix(1,0,0,1,320,1342.0065113178862) translate(57.529999999999994 73.5)"/><path d="M480 1040c0 33.14-35.82 60-80 60s-80-26.86-80-60 35.82-60 80-60 80 26.86 80 60z" stroke="#000" stroke-width="2" fill="#fff"/><use xlink:href="#f" transform="matrix(1,0,0,1,320,980) translate(41.05499999999999 51.9)"/><use xlink:href="#g" transform="matrix(1,0,0,1,320,980) translate(51.10499999999999 73.5)"/><path d="M724 505.1c0 33.12-35.82 60-80 60s-80-26.88-80-60c0-33.15 35.82-60 80-60s80 26.85 80 60z" stroke="#000" stroke-width="2" fill="#fff"/><use xlink:href="#h" transform="matrix(1,0,0,1,564.0000355305665,445.08688955334515) translate(57.57999999999999 23.41)"/><use xlink:href="#i" transform="matrix(1,0,0,1,564.0000355305665,445.08688955334515) translate(43.60499999999999 45.01)"/><use xlink:href="#j" transform="matrix(1,0,0,1,564.0000355305665,445.08688955334515) translate(47.629999999999995 66.61)"/><use xlink:href="#k" transform="matrix(1,0,0,1,564.0000355305665,445.08688955334515) translate(32.55499999999999 88.21000000000001)"/><path d="M724 660c0 33.14-35.82 60-80 60s-80-26.86-80-60 35.82-60 80-60 80 26.86 80 60z" stroke="#000" stroke-width="2" fill="#fff"/><use xlink:href="#l" transform="matrix(1,0,0,1,564.0000355305665,600) translate(41.57999999999999 51.9)"/><use xlink:href="#m" transform="matrix(1,0,0,1,564.0000355305665,600) translate(32.55499999999999 73.5)"/><path d="M722 1550c0 33.15-35.82 60-80 60s-80-26.85-80-60c0-33.12 35.82-60 80-60s80 26.88 80 60z" stroke="#000" stroke-width="2" fill="#fff"/><use xlink:href="#n" transform="matrix(1,0,0,1,562.0000177652832,1490.0130226357721) translate(57.57999999999999 29.4)"/><use xlink:href="#o" transform="matrix(1,0,0,1,562.0000177652832,1490.0130226357721) translate(43.60499999999999 51)"/><use xlink:href="#p" transform="matrix(1,0,0,1,562.0000177652832,1490.0130226357721) translate(47.629999999999995 72.60000000000001)"/><use xlink:href="#q" transform="matrix(1,0,0,1,562.0000177652832,1490.0130226357721) translate(62.029999999999994 94.20000000000002)"/><path d="M722 1402c0 33.14-35.82 60-80 60s-80-26.86-80-60c0-33.13 35.82-60 80-60s80 26.87 80 60z" stroke="#000" stroke-width="2" fill="#fff"/><use xlink:href="#r" transform="matrix(1,0,0,1,562.0000177652832,1342.0065113178862) translate(41.57999999999999 51.9)"/><use xlink:href="#s" transform="matrix(1,0,0,1,562.0000177652832,1342.0065113178862) translate(62.029999999999994 73.5)"/><path d="M485 660h.6l.6-.05.6-.06.6-.1.57-.1.6-.15.57-.16.58-.2.6-.22.6-.25.6-.3.6-.3.65-.38.65-.4.67-.48.7-.53.72-.6.76-.7.8-.78.86-.9.9-1.05.97-1.22 1.06-1.45 1.15-1.72 1.27-2.08 1.4-2.57 1.6-3.22 1.86-4.17 2.2-5.6 2.82-8.1 4.1-13.7 17.6-65.53 2.8-8.1 2.22-5.6 1.85-4.17 1.6-3.22 1.4-2.57 1.27-2.1 1.14-1.72.88-1.2" stroke="#000" stroke-width="2" fill="none"/><path d="M485.46 660.9l-1.5.77.04-1.67v-.6l.54-.3zM550.48 518.17l-4.83-7.92 14.6-3.48z"/><path d="M550.34 519.86l-6.26-10.26 18.92-4.5zm-3.12-8.95l3.4 5.57 6.86-8z"/><path d="M485 660h59.76" stroke="#000" stroke-width="2" fill="none"/><path d="M485 661h-1.03l.03-1v-.38l-.03-.62H485zM559.76 660l-14.26 4.64v-9.28z"/><path d="M563 660l-18.5 6v-12zm-16.5 3.26l10.03-3.26-10.03-3.26z"/><path d="M240 1041h.28l.3-.02.27-.03.28-.04.28-.05.3-.06.28-.1.3-.1.3-.1.3-.13.32-.15.32-.17.34-.2.35-.2.37-.27.38-.3.4-.32.44-.4.45-.44.5-.52.5-.6.6-.74.62-.87.7-1.06.77-1.28.87-1.58 1-2 1.15-2.6 1.34-3.4 1.6-4.64 1.98-6.58 2.5-9.87 3.4-16.06 5.05-30.38 30.4-240.9 3.38-16.05 2.52-9.86 1.98-6.58 1.6-4.64 1.35-3.4.84-1.9" stroke="#000" stroke-width="2" fill="none"/><path d="M240.67 1041.75l-.67.6V1041zM314.1 675.77l-6.64-6.47 13.28-6.98z"/><path d="M314.4 677.44l-8.62-8.4L323 660zm-5.25-7.9l4.66 4.55 4.68-9.47z"/><path d="M240 1041l60.77-.77" stroke="#000" stroke-width="2" fill="none"/><path d="M240 1042v-1.1zM315.76 1040.04l-14.2 4.82-.12-9.27z"/><path d="M319 1040l-18.42 6.25-.16-12.03zm-16.46 3.47l10-3.4-10.08-3.12z"/><path d="M240 1041h.27l.27.03.27.02.28.04.27.05.27.06.28.1.28.08.28.1.3.13.3.15.3.16.33.2.32.2.35.25.37.28.38.32.4.37.45.43.47.5.5.58.55.7.6.83.66 1 .74 1.22.83 1.52.94 1.9 1.1 2.47 1.28 3.25 1.54 4.43 1.88 6.3 2.4 9.4 3.22 15.33 4.83 29.05 28.77 227.2 3.22 15.33 2.4 9.4 1.9 6.3 1.53 4.43 1.28 3.24.47 1.06" stroke="#000" stroke-width="2" fill="none"/><path d="M240.68 1040.27l-.68.73v-1.36zM316.78 1399.65l-13.16-7.2 6.74-6.35z"/><path d="M319 1402l-17.07-9.32 8.74-8.26zm-13.7-9.76l9.26 5.06-4.52-9.53z"/><path d="M724 820c0 33.14-35.82 60-80 60s-80-26.86-80-60 35.82-60 80-60 80 26.86 80 60z" stroke="#000" stroke-width="2" fill="#fff"/><use xlink:href="#t" transform="matrix(1,0,0,1,564.0000355305665,760) translate(54.10499999999999 51.9)"/><use xlink:href="#u" transform="matrix(1,0,0,1,564.0000355305665,760) translate(55.605 73.5)"/><path d="M724 1120c0 33.14-35.82 60-80 60s-80-26.86-80-60 35.82-60 80-60 80 26.86 80 60z" stroke="#000" stroke-width="2" fill="#fff"/><use xlink:href="#v" transform="matrix(1,0,0,1,564.0000355305665,1060) translate(44.605 51.9)"/><use xlink:href="#w" transform="matrix(1,0,0,1,564.0000355305665,1060) translate(55.605 73.5)"/><path d="M724 1260c0 33.14-35.82 60-80 60s-80-26.86-80-60 35.82-60 80-60 80 26.86 80 60z" stroke="#000" stroke-width="2" fill="#fff"/><use xlink:href="#x" transform="matrix(1,0,0,1,564.0000355305665,1200) translate(47.05499999999999 51.9)"/><use xlink:href="#w" transform="matrix(1,0,0,1,564.0000355305665,1200) translate(55.605 73.5)"/><path d="M481 1040h.48l.47-.04.47-.05.46-.06.47-.1.46-.1.48-.13.47-.14.48-.18.5-.2.5-.24.5-.26.52-.3.54-.35.56-.4.58-.44.62-.52.65-.58.7-.67.72-.78.78-.9.84-1.06.9-1.27 1-1.5 1.1-1.82 1.23-2.23 1.4-2.8 1.58-3.58 1.86-4.73 2.25-6.45 2.8-9.36 3.86-15.12 7.5-36.12 14.1-71.16 3.84-15.12 2.8-9.36 2.25-6.45 1.85-4.72 1.6-3.57 1.38-2.8 1.22-2.24 1.1-1.83" stroke="#000" stroke-width="2" fill="none"/><path d="M481.53 1040.85l-1.6.98.07-1.83v-.55l.48-.3zM551.56 834.03l-5.45-7.5 14.28-4.63z"/><path d="M551.56 835.73L544.5 826l18.5-6zm-3.83-8.68l3.83 5.28 6.2-8.53z"/><path d="M481 1040l1.87.06 1.77.16 1.7.26 1.64.35 1.6.46 1.57.54 1.57.65 1.58.77 1.6.9 1.63 1.08 1.7 1.26 1.77 1.52 1.9 1.8 2.08 2.25 2.32 2.85 2.74 3.8 3.54 5.6 20.38 36.97 2.74 3.78 2.32 2.85 2.08 2.24 1.9 1.8 1.78 1.52 1.2.88" stroke="#000" stroke-width="2" fill="none"/><path d="M481.26 1039.03l-.52 1.94-.76-.2.02-.77v-.38l-.04-.93zM559.93 1119l-15-.08 2.9-8.8z"/><path d="M563 1120l-19.45-.1 3.76-11.4zm-16.7-2.08l10.55.05-8.5-6.24z"/><path d="M481 1040h.48l.47.04.47.05.46.06.47.1.46.1.48.13.47.14.48.18.5.2.5.24.5.26.52.3.54.35.56.4.58.44.62.52.65.58.7.67.72.78.78.9.84 1.06.9 1.27 1 1.5 1.1 1.82 1.23 2.23 1.4 2.8 1.58 3.58 1.86 4.73 2.25 6.45 2.8 9.36 3.86 15.12 7.5 36.12 14.1 71.16 3.84 15.12 2.8 9.36 2.25 6.45 1.85 4.72 1.6 3.57 1.38 2.8 1.22 2.24 1.1 1.83" stroke="#000" stroke-width="2" fill="none"/><path d="M481.53 1039.15l-1.05 1.7-.5-.3.02-.55v-.38l-.06-1.45zM560.38 1258.1l-14.27-4.63 5.46-7.5z"/><path d="M563 1260l-18.5-6 7.06-9.73zm-15.27-7.05l10.03 3.25-6.2-8.53z"/><path d="M724 980c0 33.14-35.82 60-80 60s-80-26.86-80-60 35.82-60 80-60 80 26.86 80 60z" stroke="#000" stroke-width="2" fill="#fff"/><use xlink:href="#y" transform="matrix(1,0,0,1,564.0000355305665,920) translate(47.05499999999999 51.9)"/><use xlink:href="#w" transform="matrix(1,0,0,1,564.0000355305665,920) translate(55.605 73.5)"/><path d="M481 1402l.67.02.66.04.65.07.64.1.64.12.64.15.63.17.64.2.64.25.66.27.66.3.67.35.68.4.7.45.73.5.76.57.8.65.8.74.87.85.9.98.98 1.13 1.06 1.33 1.12 1.55 1.23 1.85 1.36 2.24 1.52 2.75 1.72 3.48 2 4.52 2.44 6.17 3.2 9.22 5.53 18.56 13.2 46.62 3.2 9.23L536 1524l2 4.52 1.72 3.48 1.52 2.75 1.35 2.24 1.22 1.84 1.12 1.55.75.93" stroke="#000" stroke-width="2" fill="none"/><path d="M481.43 1401.1l-.86 1.8-.6-.27.03-.62v-.37l-.05-1.23zM558.18 1548.42l-14.7-3 4.58-8.07z"/><path d="M561 1550l-19.06-3.88 5.93-10.46zm-15.96-5.3l10.33 2.12-7.12-7.78z"/><path d="M481 1402h61.76" stroke="#000" stroke-width="2" fill="none"/><path d="M481 1403h-1.03l.03-1v-.37l-.03-.62H481zM557.76 1402l-14.26 4.64v-9.27z"/><path d="M561 1402l-18.5 6.02V1396zm-16.5 3.27l10.03-3.26-10.03-3.25z"/><path d="M1200 654c0 33.14-35.82 60-80 60s-80-26.86-80-60 35.82-60 80-60 80 26.86 80 60z" stroke="#000" stroke-width="2" fill="#fff"/><use xlink:href="#z" transform="matrix(1,0,0,1,1040.0000000001164,594) translate(40.60499999999999 40.65)"/><use xlink:href="#A" transform="matrix(1,0,0,1,1040.0000000001164,594) translate(95.505 40.65)"/><use xlink:href="#B" transform="matrix(1,0,0,1,1040.0000000001164,594) translate(48.029999999999994 62.25)"/><use xlink:href="#C" transform="matrix(1,0,0,1,1040.0000000001164,594) translate(37.10499999999999 83.85000000000001)"/><path d="M962 660c0 33.14-35.82 60-80 60s-80-26.86-80-60 35.82-60 80-60 80 26.86 80 60z" stroke="#000" stroke-width="2" fill="#fff"/><use xlink:href="#D" transform="matrix(1,0,0,1,802.0000177652832,600) translate(50.07999999999999 51.9)"/><use xlink:href="#E" transform="matrix(1,0,0,1,802.0000177652832,600) translate(31.10499999999999 73.5)"/><path d="M725 820h.56l.56-.05.54-.05.54-.08.54-.1.54-.13.54-.16.54-.18.55-.2.56-.24.57-.26.57-.3.6-.34.6-.4.63-.43.65-.5.68-.57.72-.64.75-.75.8-.85.84-.98.92-1.16.97-1.36 1.08-1.62 1.2-1.96 1.3-2.4 1.5-3.03 1.74-3.9 2.04-5.2 2.55-7.36 3.5-11.7 20.1-77.98 2.56-7.36 2.05-5.2 1.74-3.9 1.5-3 1.32-2.42 1.2-1.96 1.07-1.62.1-.14" stroke="#000" stroke-width="2" fill="none"/><path d="M725.48 820.88l-1.53.84.05-1.72V819.42l.52-.3zM788.86 673.44l-5.06-7.77 14.5-3.9z"/><path d="M788.78 675.14l-6.56-10.08L801 660zm-3.4-8.86l3.57 5.46 6.63-8.2z"/><path d="M963 660h38v-6h19.76" stroke="#000" stroke-width="2" fill="none"/><path d="M963 661h-1.03l.03-1v-.38l-.03-.62H963zM1035.76 654l-14.26 4.64v-9.28z"/><path d="M1039 654l-18.5 6v-12zm-16.5 3.26l10.03-3.26-10.03-3.26z"/><path d="M1200 791c0 33.14-35.82 60-80 60s-80-26.86-80-60 35.82-60 80-60 80 26.86 80 60z" stroke="#000" stroke-width="2" fill="#fff"/><use xlink:href="#z" transform="matrix(1,0,0,1,1040.0000000001164,731) translate(40.60499999999999 51.9)"/><use xlink:href="#A" transform="matrix(1,0,0,1,1040.0000000001164,731) translate(95.505 51.9)"/><use xlink:href="#F" transform="matrix(1,0,0,1,1040.0000000001164,731) translate(25.929999999999993 73.5)"/><use xlink:href="#G" transform="matrix(1,0,0,1,1040.0000000001164,731) translate(94.88 73.5)"/><path d="M963 660h38v131h19.76" stroke="#000" stroke-width="2" fill="none"/><path d="M963 661h-1.03l.03-1v-.38l-.03-.62H963zM1035.76 791l-14.26 4.64v-9.28z"/><path d="M1039 791l-18.5 6v-12zm-16.5 3.26l10.03-3.26-10.03-3.26z"/><path d="M1200 517c0 33.14-35.82 60-80 60s-80-26.86-80-60 35.82-60 80-60 80 26.86 80 60z" stroke="#000" stroke-width="2" fill="#fff"/><use xlink:href="#H" transform="matrix(1,0,0,1,1040.0000000001164,457) translate(55.05499999999999 40.65)"/><use xlink:href="#I" transform="matrix(1,0,0,1,1040.0000000001164,457) translate(37.10499999999999 62.25)"/><use xlink:href="#J" transform="matrix(1,0,0,1,1040.0000000001164,457) translate(45.05499999999999 83.85000000000001)"/><path d="M963 660h38V517h19.76" stroke="#000" stroke-width="2" fill="none"/><path d="M963 661h-1.03l.03-1v-.38l-.03-.62H963zM1035.76 517l-14.26 4.64v-9.28z"/><path d="M1039 517l-18.5 6v-12zm-16.5 3.26l10.03-3.26-10.03-3.26z"/><path d="M644 919v-19.76" stroke="#000" stroke-width="2" fill="none"/><path d="M645 920.03l-1-.03h-1v-1h2zM648.64 898.5h-9.28l4.64-14.26z"/><path d="M650 899.5h-12l6-18.5zm-9.26-2h6.52L644 887.47z"/><path d="M1200 380c0 33.14-35.82 60-80 60s-80-26.86-80-60 35.82-60 80-60 80 26.86 80 60z" stroke="#000" stroke-width="2" fill="#fff"/><use xlink:href="#z" transform="matrix(1,0,0,1,1040.0000000001164,320) translate(21.12999999999999 51.9)"/><use xlink:href="#K" transform="matrix(1,0,0,1,1040.0000000001164,320) translate(76.03 51.9)"/><use xlink:href="#G" transform="matrix(1,0,0,1,1040.0000000001164,320) translate(60.404999999999994 73.5)"/><path d="M963 660h38V380h19.76" stroke="#000" stroke-width="2" fill="none"/><path d="M963 661h-1.03l.03-1v-.38l-.03-.62H963zM1035.76 380l-14.26 4.64v-9.28z"/><path d="M1039 380l-18.5 6v-12zm-16.5 3.26l10.03-3.26-10.03-3.26z"/><path d="M644 566.1v14.66" stroke="#000" stroke-width="2" fill="none"/><path d="M644 565.1l.9-.02h.1v1h-2v-1.02zM644 595.76l-4.64-14.26h9.28z"/><path d="M644 599l-6-18.5h12zm-3.26-16.5l3.26 10.03 3.26-10.03z"/><path d="M1200 931c0 33.14-35.82 60-80 60s-80-26.86-80-60c0-33.13 35.82-60 80-60s80 26.87 80 60z" stroke="#000" stroke-width="2" fill="#fff"/><use xlink:href="#L" transform="matrix(1,0,0,1,1040.0000000001164,871.0032557154925) translate(31.554999999999993 51.9)"/><use xlink:href="#M" transform="matrix(1,0,0,1,1040.0000000001164,871.0032557154925) translate(85.505 51.9)"/><use xlink:href="#N" transform="matrix(1,0,0,1,1040.0000000001164,871.0032557154925) translate(44.05499999999999 73.5)"/><path d="M963 660h38v271h19.76" stroke="#000" stroke-width="2" fill="none"/><path d="M963 661h-1.03l.03-1v-.38l-.03-.62H963zM1035.76 931l-14.26 4.64v-9.27z"/><path d="M1039 931l-18.5 6v-12zm-16.5 3.26l10.03-3.26-10.03-3.26z"/><path d="M642 1489v-7.76" stroke="#000" stroke-width="2" fill="none"/><path d="M643 1490.04l-1-.03-.9.02h-.1v-1h2zM646.64 1480.5h-9.28l4.64-14.26z"/><path d="M648 1481.5h-12l6-18.5zm-9.26-2h6.52L642 1469.5z"/><path d="M722 360c0 33.14-35.82 60-80 60s-80-26.86-80-60 35.82-60 80-60 80 26.86 80 60z" stroke="#000" stroke-width="2" fill="#fff"/><use xlink:href="#O" transform="matrix(1,0,0,1,562.0000177652832,300) translate(44.605 51.9)"/><use xlink:href="#P" transform="matrix(1,0,0,1,562.0000177652832,300) translate(29.354999999999997 73.5)"/><use xlink:href="#Q" transform="matrix(1,0,0,1,562.0000177652832,300) translate(60.305 73.5)"/><path d="M481 1040l2.46-.07 2.3-.2 2.16-.35 2.06-.44 1.98-.56 1.93-.67 1.9-.8 1.9-.92 1.9-1.1 1.95-1.27 2.04-1.5 2.15-1.84 2.38-2.27 2.73-2.96 3.48-4.27 18.8-25.8 2.73-2.96 2.38-2.26 2.16-1.83 2.05-1.5 1.95-1.3 1.13-.63" stroke="#000" stroke-width="2" fill="none"/><path d="M481.2 1040.98l-1.24.25.04-1.23v-.38l-.02-.43.82-.18zM559.86 980.8l-12.67 8.03-2.3-9z"/><path d="M563 980l-16.44 10.4-2.97-11.64zm-15.18 7.24l8.9-5.64-10.5-.67z"/><path d="M644 759l-1.04-19.85" stroke="#000" stroke-width="2" fill="none"/><path d="M645.06 760.03L644 760H643.05l-.05-.95 2-.1zM647.55 738.17l-9.26.5 3.87-14.5z"/><path d="M648.97 739.1l-12 .63 5.03-18.8zm-9.36-1.5l6.52-.35-3.78-9.85z"/><path d="M725 820h.53l.5.04.5.06.5.07.48.1.5.1.46.13.46.15.47.18.46.2.46.2.48.26.47.27.5.3.48.34.5.4.5.42.54.48.54.54.57.6.6.7.62.77.65.9.7 1.04.7 1.2.8 1.4.8 1.68.9 2 .97 2.45 1.05 3.02 1.14 3.8 1.26 4.94 1.4 6.58 1.52 9.13 1.68 13.4 1.76 21.5 1.62 41.35L752 1175l1.92 180.1-.6 9.78-.65 6.24-.65 4.44-.64 3.38-.63 2.68-.6 2.2-.6 1.82-.6 1.57-.56 1.37-.57 1.2-.55 1.06-.55.95-.55.86-.54.8-.55.7-.56.67-.56.63-.56.58-.57.55-.6.5-.6.48-.62.45-.46.3" stroke="#000" stroke-width="2" fill="none"/><path d="M725.54 819.16l-1.08 1.68-.48-.3.02-.54v-.38l-.06-1.48zM741.08 1402.92l-14.9-1.58 12.98-7.5z"/><path d="M742.35 1404.06L723 1402l16.86-9.7zm-13.02-3.4l10.5 1.12-1.36-6.38z"/><path d="M1200 1080c0 33.14-35.82 60-80 60s-80-26.86-80-60 35.82-60 80-60 80 26.86 80 60z" stroke="#000" stroke-width="2" fill="#fff"/><use xlink:href="#L" transform="matrix(1,0,0,1,1040.0000000001164,1020) translate(9.12999999999999 63.15)"/><use xlink:href="#R" transform="matrix(1,0,0,1,1040.0000000001164,1020) translate(63.07999999999999 63.15)"/><path d="M963 660h38v420h19.76" stroke="#000" stroke-width="2" fill="none"/><path d="M963 661h-1.03l.03-1v-.38l-.03-.62H963zM1035.76 1080l-14.26 4.64v-9.28z"/><path d="M1039 1080l-18.5 6v-12zm-16.5 3.26l10.03-3.26-10.03-3.26z"/><path d="M963 660h38v569h19.76" stroke="#000" stroke-width="2" fill="none"/><path d="M963 661h-1.03l.03-1v-.38l-.03-.62H963zM1035.76 1229l-14.26 4.63v-9.27z"/><path d="M1039 1229l-18.5 6v-12zm-16.5 3.26l10.03-3.26-10.03-3.26z"/><path d="M963 660h38v706h19.76" stroke="#000" stroke-width="2" fill="none"/><path d="M963 661h-1.03l.03-1v-.38l-.03-.62H963zM1035.76 1366l-14.26 4.63v-9.27z"/><path d="M1039 1366l-18.5 6v-12zm-16.5 3.26l10.03-3.26-10.03-3.26z"/><path d="M963 660h38v843h19.76" stroke="#000" stroke-width="2" fill="none"/><path d="M963 661h-1.03l.03-1v-.38l-.03-.62H963zM1035.76 1503l-14.26 4.63v-9.27z"/><path d="M1039 1503l-18.5 6v-12zm-16.5 3.26l10.03-3.26-10.03-3.26z"/><path d="M963 660h38v995h19.76" stroke="#000" stroke-width="2" fill="none"/><path d="M963 661h-1.03l.03-1v-.38l-.03-.62H963zM1035.76 1655l-14.26 4.63v-9.27z"/><path d="M1039 1655l-18.5 6v-12zm-16.5 3.26l10.03-3.26-10.03-3.26z"/><path d="M1200 1229c0 33.13-35.82 60-80 60s-80-26.87-80-60c0-33.14 35.82-60 80-60s80 26.86 80 60z" stroke="#000" stroke-width="2" fill="#fff"/><use xlink:href="#L" transform="matrix(1,0,0,1,1040,1168.9967442845075) translate(31.554999999999993 51.9)"/><use xlink:href="#M" transform="matrix(1,0,0,1,1040,1168.9967442845075) translate(85.505 51.9)"/><use xlink:href="#S" transform="matrix(1,0,0,1,1040,1168.9967442845075) translate(31.57999999999999 73.5)"/><path d="M1200 1366c0 33.13-35.82 60-80 60s-80-26.87-80-60c0-33.14 35.82-60 80-60s80 26.86 80 60z" stroke="#000" stroke-width="2" fill="#fff"/><use xlink:href="#L" transform="matrix(1,0,0,1,1040,1305.9967442845075) translate(33.57999999999999 51.9)"/><use xlink:href="#T" transform="matrix(1,0,0,1,1040,1305.9967442845075) translate(87.53 51.9)"/><use xlink:href="#C" transform="matrix(1,0,0,1,1040,1305.9967442845075) translate(37.10499999999999 73.5)"/><path d="M1200 1503c0 33.13-35.82 60-80 60s-80-26.87-80-60c0-33.14 35.82-60 80-60s80 26.86 80 60z" stroke="#000" stroke-width="2" fill="#fff"/><g><use xlink:href="#L" transform="matrix(1,0,0,1,1040.0000000001164,1442.9967442845075) translate(29.554999999999996 44.4)"/><use xlink:href="#U" transform="matrix(1,0,0,1,1040.0000000001164,1442.9967442845075) translate(83.505 44.4)"/><use xlink:href="#V" transform="matrix(1,0,0,1,1040.0000000001164,1442.9967442845075) translate(9.604999999999999 66)"/><use xlink:href="#S" transform="matrix(1,0,0,1,1040.0000000001164,1442.9967442845075) translate(53.555 66)"/></g><path d="M1200 1655c0 33.13-35.82 60-80 60s-80-26.87-80-60c0-33.14 35.82-60 80-60s80 26.86 80 60z" stroke="#000" stroke-width="2" fill="#fff"/><g><use xlink:href="#W" transform="matrix(1,0,0,1,1040,1594.9967442845075) translate(29.229999999999997 51.9)"/><use xlink:href="#X" transform="matrix(1,0,0,1,1040,1594.9967442845075) translate(85.18 51.9)"/><use xlink:href="#Y" transform="matrix(1,0,0,1,1040,1594.9967442845075) translate(47.529999999999994 73.5)"/></g><path d="M485 660h.3l.3-.03.3-.03.3-.04.3-.06.3-.07.3-.08.3-.1.32-.13.33-.14.33-.15.34-.18.35-.2.36-.23.38-.27.4-.3.43-.35.44-.4.48-.46.5-.55.55-.63.6-.75.63-.9.72-1.06.78-1.3.9-1.6 1-2.04 1.15-2.6 1.36-3.45 1.62-4.66 2-6.6 2.53-9.97 3.45-16.45 5.6-33.76 21.7-154.68 3.46-16.45 2.55-9.96 2-6.6 1.6-4.68 1.37-3.45 1.07-2.43" stroke="#000" stroke-width="2" fill="none"/><path d="M485.65 660.76l-1.72 1.48.07-2.24v-.45l.35-.3zM551.85 375.62l-6.53-6.58 13.38-6.76z"/><path d="M552.1 377.3l-8.46-8.53L561 360zm-5.1-7.98l4.6 4.62 4.8-9.38z"/><path d="M722 1698.02c0 33.14-35.82 60-80 60s-80-26.86-80-60 35.82-60 80-60 80 26.86 80 60z" stroke="#000" stroke-width="2" fill="#fff"/><g><use xlink:href="#Z" transform="matrix(1,0,0,1,562.0000177652832,1638.019533953658) translate(44.605 51.9)"/><use xlink:href="#aa" transform="matrix(1,0,0,1,562.0000177652832,1638.019533953658) translate(46.55499999999999 73.5)"/></g><path d="M481 1402h.34l.33.03.34.04.34.05.34.06.33.08.35.1.35.1.35.14.36.15.38.17.37.2.4.23.4.26.42.3.45.34.46.38.5.45.52.5.56.6.6.7.65.83.73.98.78 1.18.88 1.44.97 1.77 1.1 2.24 1.28 2.87 1.48 3.76 1.8 5.12 2.17 7.25 2.8 10.95 3.85 18.34 6.7 40.62 19.46 132.2 3.86 18.36 2.8 10.94 2.17 7.26 1.8 5.1 1.47 3.78 1.27 2.86.77 1.55" stroke="#000" stroke-width="2" fill="none"/><path d="M481.62 1401.22l-1.24 1.57-.4-.32.02-.47v-.37l-.07-1.75zM558.62 1695.83l-13.65-6.24 6.28-6.83z"/><path d="M561 1698.02l-17.7-8.1 8.14-8.84zm-14.36-8.76l9.6 4.38-5.2-9.18z"/><path d="M400 1101v221.77" stroke="#000" stroke-width="2" fill="none"/><path d="M400 1100h1v1h-2v-1.03zM400 1337.77l-4.64-14.27h9.28z"/><path d="M400 1341l-6-18.5h12zm-3.26-16.5l3.26 10.03 3.26-10.03z"/><path d="M400 979l3.72-239.77" stroke="#000" stroke-width="2" fill="none"/><path d="M401 979l-.02 1.03-.98-.03h-1.02L399 979zM408.36 738.57l-9.27-.14 4.85-14.2z"/><path d="M409.72 739.6l-12.02-.2L404 721zm-9.23-2.15l6.5.1-3.1-10.08z"/><path d="M962 820c0 33.14-35.82 60-80 60s-80-26.86-80-60 35.82-60 80-60 80 26.86 80 60z" stroke="#000" stroke-width="2" fill="#fff"/><g><use xlink:href="#D" transform="matrix(1,0,0,1,802.0000177652832,760) translate(50.07999999999999 25.41)"/><use xlink:href="#ab" transform="matrix(1,0,0,1,802.0000177652832,760) translate(31.104999999999993 47.01)"/><use xlink:href="#ac" transform="matrix(1,0,0,1,802.0000177652832,760) translate(11.604999999999999 68.61)"/></g><path d="M725 820h57.76" stroke="#000" stroke-width="2" fill="none"/><path d="M725 821h-1.03l.03-1v-.38l-.03-.62H725zM797.76 820l-14.26 4.64v-9.28z"/><path d="M801 820l-18.5 6v-12zm-16.5 3.26l10.03-3.26-10.03-3.26z"/><path d="M882 759v-19.76" stroke="#000" stroke-width="2" fill="none"/><path d="M883 760.03l-1-.03h-1v-1h2zM886.64 738.5h-9.28l4.64-14.26z"/><path d="M888 739.5h-12l6-18.5zm-9.26-2h6.52L882 727.47z"/><defs><path d="M232-93c-1 65-40 97-104 97C67 4 28-28 28-90v-158h33c8 89-33 224 67 224 102 0 64-133 71-224h33v155" id="ad"/><path d="M135-143c-3-34-86-38-87 0 15 53 115 12 119 90S17 21 10-45l28-5c4 36 97 45 98 0-10-56-113-15-118-90-4-57 82-63 122-42 12 7 21 19 24 35" id="ae"/><path d="M84 4C-5 8 30-112 23-190h32v120c0 31 7 50 39 49 72-2 45-101 50-169h31l1 190h-30c-1-10 1-25-2-33-11 22-28 36-60 37" id="af"/><path d="M141-36C126-15 110 5 73 4 37 3 15-17 15-53c-1-64 63-63 125-63 3-35-9-54-41-54-24 1-41 7-42 31l-33-3c5-37 33-52 76-52 45 0 72 20 72 64v82c-1 20 7 32 28 27v20c-31 9-61-2-59-35zM48-53c0 20 12 33 32 33 41-3 63-29 60-74-43 2-92-5-92 41" id="ag"/><path d="M114-163C36-179 61-72 57 0H25l-1-190h30c1 12-1 29 2 39 6-27 23-49 58-41v29" id="ah"/><path d="M24-231v-30h32v30H24zM24 0v-190h32V0H24" id="ai"/><g id="a"><use transform="matrix(0.05,0,0,0.05,0,0)" xlink:href="#ad"/><use transform="matrix(0.05,0,0,0.05,12.950000000000001,0)" xlink:href="#ae"/><use transform="matrix(0.05,0,0,0.05,21.950000000000003,0)" xlink:href="#af"/><use transform="matrix(0.05,0,0,0.05,31.950000000000003,0)" xlink:href="#ag"/><use transform="matrix(0.05,0,0,0.05,41.95,0)" xlink:href="#ah"/><use transform="matrix(0.05,0,0,0.05,47.900000000000006,0)" xlink:href="#ai"/></g><path d="M143 4C61 4 22-44 18-125c-5-107 100-154 193-111 17 8 29 25 37 43l-32 9c-13-25-37-40-76-40-61 0-88 39-88 99 0 61 29 100 91 101 35 0 62-11 79-27v-45h-74v-28h105v86C228-13 192 4 143 4" id="aj"/><path d="M100-194c63 0 86 42 84 106H49c0 40 14 67 53 68 26 1 43-12 49-29l28 8c-11 28-37 45-77 45C44 4 14-33 15-96c1-61 26-98 85-98zm52 81c6-60-76-77-97-28-3 7-6 17-6 28h103" id="ak"/><path d="M59-47c-2 24 18 29 38 22v24C64 9 27 4 27-40v-127H5v-23h24l9-43h21v43h35v23H59v120" id="al"/><path d="M100-194c62-1 85 37 85 99 1 63-27 99-86 99S16-35 15-95c0-66 28-99 85-99zM99-20c44 1 53-31 53-75 0-43-8-75-51-75s-53 32-53 75 10 74 51 75" id="am"/><path d="M117-194c89-4 53 116 60 194h-32v-121c0-31-8-49-39-48C34-167 62-67 57 0H25l-1-190h30c1 10-1 24 2 32 11-22 29-35 61-36" id="an"/><g id="b"><use transform="matrix(0.05,0,0,0.05,0,0)" xlink:href="#aj"/><use transform="matrix(0.05,0,0,0.05,14,0)" xlink:href="#ak"/><use transform="matrix(0.05,0,0,0.05,24,0)" xlink:href="#ae"/><use transform="matrix(0.05,0,0,0.05,33,0)" xlink:href="#al"/><use transform="matrix(0.05,0,0,0.05,38,0)" xlink:href="#ai"/><use transform="matrix(0.05,0,0,0.05,41.95,0)" xlink:href="#am"/><use transform="matrix(0.05,0,0,0.05,51.95,0)" xlink:href="#an"/><use transform="matrix(0.05,0,0,0.05,61.95,0)" xlink:href="#ag"/><use transform="matrix(0.05,0,0,0.05,71.95,0)" xlink:href="#ah"/></g><path d="M205 0l-28-72H64L36 0H1l101-248h38L239 0h-34zm-38-99l-47-123c-12 45-31 82-46 123h93" id="ao"/><path d="M177-190C167-65 218 103 67 71c-23-6-38-20-44-43l32-5c15 47 100 32 89-28v-30C133-14 115 1 83 1 29 1 15-40 15-95c0-56 16-97 71-98 29-1 48 16 59 35 1-10 0-23 2-32h30zM94-22c36 0 50-32 50-73 0-42-14-75-50-75-39 0-46 34-46 75s6 73 46 73" id="ap"/><g id="c"><use transform="matrix(0.05,0,0,0.05,0,0)" xlink:href="#ao"/><use transform="matrix(0.05,0,0,0.05,12,0)" xlink:href="#ae"/><use transform="matrix(0.05,0,0,0.05,21,0)" xlink:href="#ae"/><use transform="matrix(0.05,0,0,0.05,30,0)" xlink:href="#ai"/><use transform="matrix(0.05,0,0,0.05,33.95,0)" xlink:href="#ap"/><use transform="matrix(0.05,0,0,0.05,43.95,0)" xlink:href="#an"/><use transform="matrix(0.05,0,0,0.05,53.95,0)" xlink:href="#ag"/><use transform="matrix(0.05,0,0,0.05,63.95,0)" xlink:href="#al"/><use transform="matrix(0.05,0,0,0.05,68.95,0)" xlink:href="#af"/><use transform="matrix(0.05,0,0,0.05,78.95,0)" xlink:href="#ah"/><use transform="matrix(0.05,0,0,0.05,84.9,0)" xlink:href="#ak"/><use transform="matrix(0.05,0,0,0.05,94.9,0)" xlink:href="#ae"/></g><g id="d"><use transform="matrix(0.05,0,0,0.05,0,0)" xlink:href="#aj"/><use transform="matrix(0.05,0,0,0.05,14,0)" xlink:href="#ak"/><use transform="matrix(0.05,0,0,0.05,24,0)" xlink:href="#ae"/><use transform="matrix(0.05,0,0,0.05,33,0)" xlink:href="#al"/><use transform="matrix(0.05,0,0,0.05,38,0)" xlink:href="#ai"/><use transform="matrix(0.05,0,0,0.05,41.95,0)" xlink:href="#am"/><use transform="matrix(0.05,0,0,0.05,51.95,0)" xlink:href="#an"/><use transform="matrix(0.05,0,0,0.05,61.95,0)" xlink:href="#ag"/><use transform="matrix(0.05,0,0,0.05,71.95,0)" xlink:href="#ah"/></g><path d="M24 0v-261h32V0H24" id="aq"/><g id="e"><use transform="matrix(0.05,0,0,0.05,0,0)" xlink:href="#ao"/><use transform="matrix(0.05,0,0,0.05,12,0)" xlink:href="#af"/><use transform="matrix(0.05,0,0,0.05,22,0)" xlink:href="#aq"/><use transform="matrix(0.05,0,0,0.05,25.950000000000003,0)" xlink:href="#ak"/><use transform="matrix(0.05,0,0,0.05,35.95,0)" xlink:href="#ae"/></g><g id="f"><use transform="matrix(0.05,0,0,0.05,0,0)" xlink:href="#aj"/><use transform="matrix(0.05,0,0,0.05,14,0)" xlink:href="#ak"/><use transform="matrix(0.05,0,0,0.05,24,0)" xlink:href="#ae"/><use transform="matrix(0.05,0,0,0.05,33,0)" xlink:href="#al"/><use transform="matrix(0.05,0,0,0.05,38,0)" xlink:href="#ai"/><use transform="matrix(0.05,0,0,0.05,41.95,0)" xlink:href="#am"/><use transform="matrix(0.05,0,0,0.05,51.95,0)" xlink:href="#an"/><use transform="matrix(0.05,0,0,0.05,61.95,0)" xlink:href="#ag"/><use transform="matrix(0.05,0,0,0.05,71.95,0)" xlink:href="#ah"/></g><path d="M197 0v-115H63V0H30v-248h33v105h134v-105h34V0h-34" id="ar"/><g id="g"><use transform="matrix(0.05,0,0,0.05,0,0)" xlink:href="#ar"/><use transform="matrix(0.05,0,0,0.05,12.950000000000001,0)" xlink:href="#am"/><use transform="matrix(0.05,0,0,0.05,22.950000000000003,0)" xlink:href="#ah"/><use transform="matrix(0.05,0,0,0.05,28.900000000000002,0)" xlink:href="#ag"/><use transform="matrix(0.05,0,0,0.05,38.900000000000006,0)" xlink:href="#ah"/><use transform="matrix(0.05,0,0,0.05,44.85000000000001,0)" xlink:href="#ai"/><use transform="matrix(0.05,0,0,0.05,48.80000000000001,0)" xlink:href="#ae"/></g><path d="M125-24c46 0 70-25 89-51l25 16C214-24 183 4 123 4 8 4-5-146 60-208c32-50 158-61 191-5 5 7 9 14 11 22l-32 10c-9-28-33-43-69-43-74 0-108 51-108 125 0 46 24 75 72 75" id="as"/><path d="M66-151c12-25 30-51 66-40l-6 26C45-176 58-65 38 0H6l36-190h30" id="at"/><path d="M111-194c62-3 86 47 72 106H45c-7 38 6 69 45 68 27-1 43-14 53-32l24 11C152-15 129 4 87 4 38 3 12-23 12-71c0-70 32-119 99-123zm44 81c14-66-71-72-95-28-4 8-8 17-11 28h106" id="au"/><path d="M165-48c-4 18 1 34 23 27l-3 20c-29 8-62 0-52-35h-2C116-14 99 4 63 4 30 4 8-16 8-49c0-68 71-67 138-67 10-26 0-56-31-54-26 1-42 9-47 31l-32-5c8-67 160-71 144 15-5 28-9 54-15 81zM42-50c3 52 80 24 89-6 7-12 7-24 11-38-47 1-103-4-100 44" id="av"/><g id="h"><use transform="matrix(0.05,0,0,0.05,0,0)" xlink:href="#as"/><use transform="matrix(0.05,0,0,0.05,12.950000000000001,0)" xlink:href="#at"/><use transform="matrix(0.05,0,0,0.05,18.900000000000002,0)" xlink:href="#au"/><use transform="matrix(0.05,0,0,0.05,28.900000000000002,0)" xlink:href="#av"/><use transform="matrix(0.05,0,0,0.05,38.900000000000006,0)" xlink:href="#at"/></g><path d="M222 0l43-216c-8 16-17 34-26 49L143 0h-22L81-216 41 0H11l48-248h42l38 208 116-208h45L252 0h-30" id="aw"/><path d="M30-147c31-64 166-65 159 27C183-49 158 1 86 4 9 8 1-88 30-147zM88-20c53 0 68-48 68-100 0-31-11-51-44-50-52 1-68 46-68 97 0 32 13 53 44 53" id="ax"/><path d="M133-28C103 26-5 8 13-77c13-62 24-115 90-117 29-1 46 15 56 35l19-102h32L160 0h-30zM45-64c-2 27 10 43 35 43 54-1 69-50 69-103 0-29-15-46-42-46-53-1-58 58-62 106" id="ay"/><path d="M50-231l6-30h32l-6 30H50zM6 0l37-190h31L37 0H6" id="az"/><path d="M76-167L44 0H12l33-167H18l4-23h27c3-47 25-81 82-69l-4 24c-35-8-44 15-46 45h37l-5 23H76" id="aA"/><path d="M44-68c0 29 11 47 38 47 30 0 42-19 51-41l28 9C148-21 126 4 82 4 31 4 10-29 12-85c3-77 74-140 146-93 12 8 15 23 18 40l-31 5c-1-22-13-36-36-36-52 0-65 49-65 101" id="aB"/><g id="i"><use transform="matrix(0.05,0,0,0.05,0,0)" xlink:href="#aw"/><use transform="matrix(0.05,0,0,0.05,14.950000000000001,0)" xlink:href="#ax"/><use transform="matrix(0.05,0,0,0.05,24.950000000000003,0)" xlink:href="#ay"/><use transform="matrix(0.05,0,0,0.05,34.95,0)" xlink:href="#az"/><use transform="matrix(0.05,0,0,0.05,38.900000000000006,0)" xlink:href="#aA"/><use transform="matrix(0.05,0,0,0.05,43.900000000000006,0)" xlink:href="#az"/><use transform="matrix(0.05,0,0,0.05,47.85000000000001,0)" xlink:href="#aB"/><use transform="matrix(0.05,0,0,0.05,56.85,0)" xlink:href="#av"/><use transform="matrix(0.05,0,0,0.05,66.85000000000001,0)" xlink:href="#at"/></g><path d="M11 0l48-248h184l-5 28H87l-15 79h140l-5 27H67L50-27h158l-5 27H11" id="aC"/><path d="M6 0l50-261h32L37 0H6" id="aD"/><path d="M248-111c6-24 9-61-24-58-72 9-57 108-77 169h-31l26-142c3-37-50-30-64-10C52-115 50-51 37 0H6l36-190h30c-1 10-6 24-4 32 13-43 101-52 105 5 13-22 29-41 61-41 90 0 28 129 23 194h-31" id="aE"/><path d="M67-158c22-48 132-52 116 29L158 0h-32l25-140c3-38-53-32-70-12C52-117 51-52 38 0H6l36-190h30" id="aF"/><g id="j"><use transform="matrix(0.05,0,0,0.05,0,0)" xlink:href="#aC"/><use transform="matrix(0.05,0,0,0.05,12,0)" xlink:href="#aD"/><use transform="matrix(0.05,0,0,0.05,15.949999999999998,0)" xlink:href="#az"/><use transform="matrix(0.05,0,0,0.05,19.9,0)" xlink:href="#aE"/><use transform="matrix(0.05,0,0,0.05,34.85,0)" xlink:href="#az"/><use transform="matrix(0.05,0,0,0.05,38.800000000000004,0)" xlink:href="#aF"/><use transform="matrix(0.05,0,0,0.05,48.800000000000004,0)" xlink:href="#av"/><use transform="matrix(0.05,0,0,0.05,58.800000000000004,0)" xlink:href="#at"/></g><g id="k"><use transform="matrix(0.05,0,0,0.05,0,0)" xlink:href="#ao"/><use transform="matrix(0.05,0,0,0.05,12,0)" xlink:href="#ae"/><use transform="matrix(0.05,0,0,0.05,21,0)" xlink:href="#ae"/><use transform="matrix(0.05,0,0,0.05,30,0)" xlink:href="#ai"/><use transform="matrix(0.05,0,0,0.05,33.95,0)" xlink:href="#ap"/><use transform="matrix(0.05,0,0,0.05,43.95,0)" xlink:href="#an"/><use transform="matrix(0.05,0,0,0.05,53.95,0)" xlink:href="#ag"/><use transform="matrix(0.05,0,0,0.05,63.95,0)" xlink:href="#al"/><use transform="matrix(0.05,0,0,0.05,68.95,0)" xlink:href="#af"/><use transform="matrix(0.05,0,0,0.05,78.95,0)" xlink:href="#ah"/><use transform="matrix(0.05,0,0,0.05,84.9,0)" xlink:href="#ag"/></g><path d="M212-179c-10-28-35-45-73-45-59 0-87 40-87 99 0 60 29 101 89 101 43 0 62-24 78-52l27 14C228-24 195 4 139 4 59 4 22-46 18-125c-6-104 99-153 187-111 19 9 31 26 39 46" id="aG"/><g id="l"><use transform="matrix(0.05,0,0,0.05,0,0)" xlink:href="#aG"/><use transform="matrix(0.05,0,0,0.05,12.950000000000001,0)" xlink:href="#am"/><use transform="matrix(0.05,0,0,0.05,22.950000000000003,0)" xlink:href="#an"/><use transform="matrix(0.05,0,0,0.05,32.95,0)" xlink:href="#ae"/><use transform="matrix(0.05,0,0,0.05,41.95,0)" xlink:href="#af"/><use transform="matrix(0.05,0,0,0.05,51.95,0)" xlink:href="#aq"/><use transform="matrix(0.05,0,0,0.05,55.900000000000006,0)" xlink:href="#al"/><use transform="matrix(0.05,0,0,0.05,60.900000000000006,0)" xlink:href="#ag"/><use transform="matrix(0.05,0,0,0.05,70.9,0)" xlink:href="#ah"/></g><g id="m"><use transform="matrix(0.05,0,0,0.05,0,0)" xlink:href="#ao"/><use transform="matrix(0.05,0,0,0.05,12,0)" xlink:href="#ae"/><use transform="matrix(0.05,0,0,0.05,21,0)" xlink:href="#ae"/><use transform="matrix(0.05,0,0,0.05,30,0)" xlink:href="#ai"/><use transform="matrix(0.05,0,0,0.05,33.95,0)" xlink:href="#ap"/><use transform="matrix(0.05,0,0,0.05,43.95,0)" xlink:href="#an"/><use transform="matrix(0.05,0,0,0.05,53.95,0)" xlink:href="#ag"/><use transform="matrix(0.05,0,0,0.05,63.95,0)" xlink:href="#al"/><use transform="matrix(0.05,0,0,0.05,68.95,0)" xlink:href="#af"/><use transform="matrix(0.05,0,0,0.05,78.95,0)" xlink:href="#ah"/><use transform="matrix(0.05,0,0,0.05,84.9,0)" xlink:href="#ag"/></g><g id="n"><use transform="matrix(0.05,0,0,0.05,0,0)" xlink:href="#as"/><use transform="matrix(0.05,0,0,0.05,12.950000000000001,0)" xlink:href="#at"/><use transform="matrix(0.05,0,0,0.05,18.900000000000002,0)" xlink:href="#au"/><use transform="matrix(0.05,0,0,0.05,28.900000000000002,0)" xlink:href="#av"/><use transform="matrix(0.05,0,0,0.05,38.900000000000006,0)" xlink:href="#at"/></g><g id="o"><use transform="matrix(0.05,0,0,0.05,0,0)" xlink:href="#aw"/><use transform="matrix(0.05,0,0,0.05,14.950000000000001,0)" xlink:href="#ax"/><use transform="matrix(0.05,0,0,0.05,24.950000000000003,0)" xlink:href="#ay"/><use transform="matrix(0.05,0,0,0.05,34.95,0)" xlink:href="#az"/><use transform="matrix(0.05,0,0,0.05,38.900000000000006,0)" xlink:href="#aA"/><use transform="matrix(0.05,0,0,0.05,43.900000000000006,0)" xlink:href="#az"/><use transform="matrix(0.05,0,0,0.05,47.85000000000001,0)" xlink:href="#aB"/><use transform="matrix(0.05,0,0,0.05,56.85,0)" xlink:href="#av"/><use transform="matrix(0.05,0,0,0.05,66.85000000000001,0)" xlink:href="#at"/></g><g id="p"><use transform="matrix(0.05,0,0,0.05,0,0)" xlink:href="#aC"/><use transform="matrix(0.05,0,0,0.05,12,0)" xlink:href="#aD"/><use transform="matrix(0.05,0,0,0.05,15.949999999999998,0)" xlink:href="#az"/><use transform="matrix(0.05,0,0,0.05,19.9,0)" xlink:href="#aE"/><use transform="matrix(0.05,0,0,0.05,34.85,0)" xlink:href="#az"/><use transform="matrix(0.05,0,0,0.05,38.800000000000004,0)" xlink:href="#aF"/><use transform="matrix(0.05,0,0,0.05,48.800000000000004,0)" xlink:href="#av"/><use transform="matrix(0.05,0,0,0.05,58.800000000000004,0)" xlink:href="#at"/></g><g id="q"><use transform="matrix(0.05,0,0,0.05,0,0)" xlink:href="#ao"/><use transform="matrix(0.05,0,0,0.05,12,0)" xlink:href="#af"/><use transform="matrix(0.05,0,0,0.05,22,0)" xlink:href="#aq"/><use transform="matrix(0.05,0,0,0.05,25.950000000000003,0)" xlink:href="#ag"/></g><g id="r"><use transform="matrix(0.05,0,0,0.05,0,0)" xlink:href="#aG"/><use transform="matrix(0.05,0,0,0.05,12.950000000000001,0)" xlink:href="#am"/><use transform="matrix(0.05,0,0,0.05,22.950000000000003,0)" xlink:href="#an"/><use transform="matrix(0.05,0,0,0.05,32.95,0)" xlink:href="#ae"/><use transform="matrix(0.05,0,0,0.05,41.95,0)" xlink:href="#af"/><use transform="matrix(0.05,0,0,0.05,51.95,0)" xlink:href="#aq"/><use transform="matrix(0.05,0,0,0.05,55.900000000000006,0)" xlink:href="#al"/><use transform="matrix(0.05,0,0,0.05,60.900000000000006,0)" xlink:href="#ag"/><use transform="matrix(0.05,0,0,0.05,70.9,0)" xlink:href="#ah"/></g><g id="s"><use transform="matrix(0.05,0,0,0.05,0,0)" xlink:href="#ao"/><use transform="matrix(0.05,0,0,0.05,12,0)" xlink:href="#af"/><use transform="matrix(0.05,0,0,0.05,22,0)" xlink:href="#aq"/><use transform="matrix(0.05,0,0,0.05,25.950000000000003,0)" xlink:href="#ag"/></g><path d="M30-248c118-7 216 8 213 122C240-48 200 0 122 0H30v-248zM63-27c89 8 146-16 146-99s-60-101-146-95v194" id="aH"/><path d="M101-234c-31-9-42 10-38 44h38v23H63V0H32v-167H5v-23h27c-7-52 17-82 69-68v24" id="aI"/><g id="t"><use transform="matrix(0.05,0,0,0.05,0,0)" xlink:href="#aH"/><use transform="matrix(0.05,0,0,0.05,12.950000000000001,0)" xlink:href="#ak"/><use transform="matrix(0.05,0,0,0.05,22.950000000000003,0)" xlink:href="#aI"/><use transform="matrix(0.05,0,0,0.05,27.950000000000003,0)" xlink:href="#ai"/><use transform="matrix(0.05,0,0,0.05,31.900000000000002,0)" xlink:href="#an"/><use transform="matrix(0.05,0,0,0.05,41.900000000000006,0)" xlink:href="#ai"/><use transform="matrix(0.05,0,0,0.05,45.85000000000001,0)" xlink:href="#ah"/></g><g id="u"><use transform="matrix(0.05,0,0,0.05,0,0)" xlink:href="#ar"/><use transform="matrix(0.05,0,0,0.05,12.950000000000001,0)" xlink:href="#am"/><use transform="matrix(0.05,0,0,0.05,22.950000000000003,0)" xlink:href="#ah"/><use transform="matrix(0.05,0,0,0.05,28.900000000000002,0)" xlink:href="#ag"/><use transform="matrix(0.05,0,0,0.05,38.900000000000006,0)" xlink:href="#ah"/><use transform="matrix(0.05,0,0,0.05,44.85000000000001,0)" xlink:href="#ai"/></g><g id="v"><use transform="matrix(0.05,0,0,0.05,0,0)" xlink:href="#aG"/><use transform="matrix(0.05,0,0,0.05,12.950000000000001,0)" xlink:href="#ag"/><use transform="matrix(0.05,0,0,0.05,22.950000000000003,0)" xlink:href="#ah"/><use transform="matrix(0.05,0,0,0.05,28.900000000000002,0)" xlink:href="#ah"/><use transform="matrix(0.05,0,0,0.05,34.85,0)" xlink:href="#ak"/><use transform="matrix(0.05,0,0,0.05,44.85,0)" xlink:href="#ap"/><use transform="matrix(0.05,0,0,0.05,54.85,0)" xlink:href="#ag"/><use transform="matrix(0.05,0,0,0.05,64.85,0)" xlink:href="#ah"/></g><g id="w"><use transform="matrix(0.05,0,0,0.05,0,0)" xlink:href="#ar"/><use transform="matrix(0.05,0,0,0.05,12.950000000000001,0)" xlink:href="#am"/><use transform="matrix(0.05,0,0,0.05,22.950000000000003,0)" xlink:href="#ah"/><use transform="matrix(0.05,0,0,0.05,28.900000000000002,0)" xlink:href="#ag"/><use transform="matrix(0.05,0,0,0.05,38.900000000000006,0)" xlink:href="#ah"/><use transform="matrix(0.05,0,0,0.05,44.85000000000001,0)" xlink:href="#ai"/></g><path d="M85-194c31 0 48 13 60 33l-1-100h32l1 261h-30c-2-10 0-23-3-31C134-8 116 4 85 4 32 4 16-35 15-94c0-66 23-100 70-100zm9 24c-40 0-46 34-46 75 0 40 6 74 45 74 42 0 51-32 51-76 0-42-9-74-50-73" id="aJ"/><g id="x"><use transform="matrix(0.05,0,0,0.05,0,0)" xlink:href="#aj"/><use transform="matrix(0.05,0,0,0.05,14,0)" xlink:href="#af"/><use transform="matrix(0.05,0,0,0.05,24,0)" xlink:href="#ag"/><use transform="matrix(0.05,0,0,0.05,34,0)" xlink:href="#ah"/><use transform="matrix(0.05,0,0,0.05,39.95,0)" xlink:href="#aJ"/><use transform="matrix(0.05,0,0,0.05,49.95,0)" xlink:href="#ag"/><use transform="matrix(0.05,0,0,0.05,59.95,0)" xlink:href="#ah"/></g><g id="y"><use transform="matrix(0.05,0,0,0.05,0,0)" xlink:href="#aj"/><use transform="matrix(0.05,0,0,0.05,14,0)" xlink:href="#ak"/><use transform="matrix(0.05,0,0,0.05,24,0)" xlink:href="#an"/><use transform="matrix(0.05,0,0,0.05,34,0)" xlink:href="#ak"/><use transform="matrix(0.05,0,0,0.05,44,0)" xlink:href="#ah"/><use transform="matrix(0.05,0,0,0.05,49.95,0)" xlink:href="#ag"/><use transform="matrix(0.05,0,0,0.05,59.95,0)" xlink:href="#ah"/></g><path d="M233-177c-1 41-23 64-60 70L243 0h-38l-65-103H63V0H30v-248c88 3 205-21 203 71zM63-129c60-2 137 13 137-47 0-61-80-42-137-45v92" id="aK"/><g id="z"><use transform="matrix(0.05,0,0,0.05,0,0)" xlink:href="#aK"/><use transform="matrix(0.05,0,0,0.05,12.950000000000001,0)" xlink:href="#ak"/><use transform="matrix(0.05,0,0,0.05,22.950000000000003,0)" xlink:href="#ae"/><use transform="matrix(0.05,0,0,0.05,31.950000000000003,0)" xlink:href="#al"/><use transform="matrix(0.05,0,0,0.05,36.95,0)" xlink:href="#ad"/></g><path d="M63-220v92h138v28H63V0H30v-248h175v28H63" id="aL"/><path d="M141 0L90-78 38 0H4l68-98-65-92h35l48 74 47-74h35l-64 92 68 98h-35" id="aM"/><g id="A"><use transform="matrix(0.05,0,0,0.05,0,0)" xlink:href="#aL"/><use transform="matrix(0.05,0,0,0.05,10.950000000000001,0)" xlink:href="#ai"/><use transform="matrix(0.05,0,0,0.05,14.9,0)" xlink:href="#aM"/></g><path d="M185-189c-5-48-123-54-124 2 14 75 158 14 163 119 3 78-121 87-175 55-17-10-28-26-33-46l33-7c5 56 141 63 141-1 0-78-155-14-162-118-5-82 145-84 179-34 5 7 8 16 11 25" id="aN"/><g id="B"><use transform="matrix(0.05,0,0,0.05,0,0)" xlink:href="#aN"/><use transform="matrix(0.05,0,0,0.05,12,0)" xlink:href="#ak"/><use transform="matrix(0.05,0,0,0.05,22,0)" xlink:href="#ae"/><use transform="matrix(0.05,0,0,0.05,31,0)" xlink:href="#ae"/><use transform="matrix(0.05,0,0,0.05,40,0)" xlink:href="#ai"/><use transform="matrix(0.05,0,0,0.05,43.95,0)" xlink:href="#am"/><use transform="matrix(0.05,0,0,0.05,53.95,0)" xlink:href="#an"/></g><path d="M210-169c-67 3-38 105-44 169h-31v-121c0-29-5-50-35-48C34-165 62-65 56 0H25l-1-190h30c1 10-1 24 2 32 10-44 99-50 107 0 11-21 27-35 58-36 85-2 47 119 55 194h-31v-121c0-29-5-49-35-48" id="aO"/><g id="C"><use transform="matrix(0.05,0,0,0.05,0,0)" xlink:href="#aG"/><use transform="matrix(0.05,0,0,0.05,12.950000000000001,0)" xlink:href="#aq"/><use transform="matrix(0.05,0,0,0.05,16.900000000000002,0)" xlink:href="#ag"/><use transform="matrix(0.05,0,0,0.05,26.900000000000002,0)" xlink:href="#ae"/><use transform="matrix(0.05,0,0,0.05,35.900000000000006,0)" xlink:href="#ae"/><use transform="matrix(0.05,0,0,0.05,44.900000000000006,0)" xlink:href="#ah"/><use transform="matrix(0.05,0,0,0.05,50.85000000000001,0)" xlink:href="#am"/><use transform="matrix(0.05,0,0,0.05,60.85,0)" xlink:href="#am"/><use transform="matrix(0.05,0,0,0.05,70.85000000000001,0)" xlink:href="#aO"/></g><path d="M30 0v-248h187v28H63v79h144v27H63v87h162V0H30" id="aP"/><path d="M115-194c53 0 69 39 70 98 0 66-23 100-70 100C84 3 66-7 56-30L54 0H23l1-261h32v101c10-23 28-34 59-34zm-8 174c40 0 45-34 45-75 0-40-5-75-45-74-42 0-51 32-51 76 0 43 10 73 51 73" id="aQ"/><g id="D"><use transform="matrix(0.05,0,0,0.05,0,0)" xlink:href="#aP"/><use transform="matrix(0.05,0,0,0.05,12,0)" xlink:href="#ae"/><use transform="matrix(0.05,0,0,0.05,21,0)" xlink:href="#al"/><use transform="matrix(0.05,0,0,0.05,26,0)" xlink:href="#ag"/><use transform="matrix(0.05,0,0,0.05,36,0)" xlink:href="#aQ"/><use transform="matrix(0.05,0,0,0.05,46,0)" xlink:href="#aq"/><use transform="matrix(0.05,0,0,0.05,49.95,0)" xlink:href="#ai"/><use transform="matrix(0.05,0,0,0.05,53.900000000000006,0)" xlink:href="#ah"/></g><path d="M96-169c-40 0-48 33-48 73s9 75 48 75c24 0 41-14 43-38l32 2c-6 37-31 61-74 61-59 0-76-41-82-99-10-93 101-131 147-64 4 7 5 14 7 22l-32 3c-4-21-16-35-41-35" id="aR"/><g id="E"><use transform="matrix(0.05,0,0,0.05,0,0)" xlink:href="#aK"/><use transform="matrix(0.05,0,0,0.05,12.950000000000001,0)" xlink:href="#ak"/><use transform="matrix(0.05,0,0,0.05,22.950000000000003,0)" xlink:href="#ae"/><use transform="matrix(0.05,0,0,0.05,31.950000000000003,0)" xlink:href="#al"/><use transform="matrix(0.05,0,0,0.05,36.95,0)" xlink:href="#ah"/><use transform="matrix(0.05,0,0,0.05,42.900000000000006,0)" xlink:href="#ai"/><use transform="matrix(0.05,0,0,0.05,46.85000000000001,0)" xlink:href="#aR"/><use transform="matrix(0.05,0,0,0.05,55.85,0)" xlink:href="#aR"/><use transform="matrix(0.05,0,0,0.05,64.85000000000001,0)" xlink:href="#ai"/><use transform="matrix(0.05,0,0,0.05,68.80000000000001,0)" xlink:href="#am"/><use transform="matrix(0.05,0,0,0.05,78.80000000000001,0)" xlink:href="#an"/><use transform="matrix(0.05,0,0,0.05,88.80000000000001,0)" xlink:href="#ae"/></g><g id="F"><use transform="matrix(0.05,0,0,0.05,0,0)" xlink:href="#aN"/><use transform="matrix(0.05,0,0,0.05,12,0)" xlink:href="#ak"/><use transform="matrix(0.05,0,0,0.05,22,0)" xlink:href="#ae"/><use transform="matrix(0.05,0,0,0.05,31,0)" xlink:href="#ae"/><use transform="matrix(0.05,0,0,0.05,40,0)" xlink:href="#ai"/><use transform="matrix(0.05,0,0,0.05,43.95,0)" xlink:href="#am"/><use transform="matrix(0.05,0,0,0.05,53.95,0)" xlink:href="#an"/></g><path d="M127-220V0H93v-220H8v-28h204v28h-85" id="aS"/><g id="G"><use transform="matrix(0.05,0,0,0.05,0,0)" xlink:href="#aS"/><use transform="matrix(0.05,0,0,0.05,10.3,0)" xlink:href="#ai"/><use transform="matrix(0.05,0,0,0.05,14.25,0)" xlink:href="#aO"/><use transform="matrix(0.05,0,0,0.05,29.200000000000003,0)" xlink:href="#ak"/></g><g id="H"><use transform="matrix(0.05,0,0,0.05,0,0)" xlink:href="#aK"/><use transform="matrix(0.05,0,0,0.05,12.950000000000001,0)" xlink:href="#ak"/><use transform="matrix(0.05,0,0,0.05,22.950000000000003,0)" xlink:href="#ae"/><use transform="matrix(0.05,0,0,0.05,31.950000000000003,0)" xlink:href="#al"/><use transform="matrix(0.05,0,0,0.05,36.95,0)" xlink:href="#ad"/></g><g id="I"><use transform="matrix(0.05,0,0,0.05,0,0)" xlink:href="#aG"/><use transform="matrix(0.05,0,0,0.05,12.950000000000001,0)" xlink:href="#aq"/><use transform="matrix(0.05,0,0,0.05,16.900000000000002,0)" xlink:href="#ag"/><use transform="matrix(0.05,0,0,0.05,26.900000000000002,0)" xlink:href="#ae"/><use transform="matrix(0.05,0,0,0.05,35.900000000000006,0)" xlink:href="#ae"/><use transform="matrix(0.05,0,0,0.05,44.900000000000006,0)" xlink:href="#ah"/><use transform="matrix(0.05,0,0,0.05,50.85000000000001,0)" xlink:href="#am"/><use transform="matrix(0.05,0,0,0.05,60.85,0)" xlink:href="#am"/><use transform="matrix(0.05,0,0,0.05,70.85000000000001,0)" xlink:href="#aO"/></g><path d="M115-194c55 1 70 41 70 98S169 2 115 4C84 4 66-9 55-30l1 105H24l-1-265h31l2 30c10-21 28-34 59-34zm-8 174c40 0 45-34 45-75s-6-73-45-74c-42 0-51 32-51 76 0 43 10 73 51 73" id="aT"/><path d="M179-190L93 31C79 59 56 82 12 73V49c39 6 53-20 64-50L1-190h34L92-34l54-156h33" id="aU"/><g id="J"><use transform="matrix(0.05,0,0,0.05,0,0)" xlink:href="#aG"/><use transform="matrix(0.05,0,0,0.05,12.950000000000001,0)" xlink:href="#ag"/><use transform="matrix(0.05,0,0,0.05,22.950000000000003,0)" xlink:href="#aT"/><use transform="matrix(0.05,0,0,0.05,32.95,0)" xlink:href="#ag"/><use transform="matrix(0.05,0,0,0.05,42.95,0)" xlink:href="#aR"/><use transform="matrix(0.05,0,0,0.05,51.95,0)" xlink:href="#ai"/><use transform="matrix(0.05,0,0,0.05,55.900000000000006,0)" xlink:href="#al"/><use transform="matrix(0.05,0,0,0.05,60.900000000000006,0)" xlink:href="#aU"/></g><path d="M206 0h-36l-40-164L89 0H53L-1-190h32L70-26l43-164h34l41 164 42-164h31" id="aV"/><g id="K"><use transform="matrix(0.05,0,0,0.05,0,0)" xlink:href="#ao"/><use transform="matrix(0.05,0,0,0.05,12,0)" xlink:href="#aq"/><use transform="matrix(0.05,0,0,0.05,15.949999999999998,0)" xlink:href="#aq"/><use transform="matrix(0.05,0,0,0.05,19.9,0)" xlink:href="#am"/><use transform="matrix(0.05,0,0,0.05,29.899999999999995,0)" xlink:href="#aV"/><use transform="matrix(0.05,0,0,0.05,42.85,0)" xlink:href="#ak"/><use transform="matrix(0.05,0,0,0.05,52.85,0)" xlink:href="#aJ"/></g><path d="M160-131c35 5 61 23 61 61C221 17 115-2 30 0v-248c76 3 177-17 177 60 0 33-19 50-47 57zm-97-11c50-1 110 9 110-42 0-47-63-36-110-37v79zm0 115c55-2 124 14 124-45 0-56-70-42-124-44v89" id="aW"/><g id="L"><use transform="matrix(0.05,0,0,0.05,0,0)" xlink:href="#aK"/><use transform="matrix(0.05,0,0,0.05,12.950000000000001,0)" xlink:href="#ak"/><use transform="matrix(0.05,0,0,0.05,22.950000000000003,0)" xlink:href="#ae"/><use transform="matrix(0.05,0,0,0.05,31.950000000000003,0)" xlink:href="#al"/><use transform="matrix(0.05,0,0,0.05,36.95,0)" xlink:href="#aW"/></g><path d="M30 0v-248h33v221h125V0H30" id="aX"/><path d="M108 0H70L1-190h34L89-25l56-165h34" id="aY"/><g id="M"><use transform="matrix(0.05,0,0,0.05,0,0)" xlink:href="#aX"/><use transform="matrix(0.05,0,0,0.05,10,0)" xlink:href="#ak"/><use transform="matrix(0.05,0,0,0.05,20,0)" xlink:href="#aY"/><use transform="matrix(0.05,0,0,0.05,29,0)" xlink:href="#ak"/><use transform="matrix(0.05,0,0,0.05,39,0)" xlink:href="#aq"/></g><g id="N"><use transform="matrix(0.05,0,0,0.05,0,0)" xlink:href="#aG"/><use transform="matrix(0.05,0,0,0.05,12.950000000000001,0)" xlink:href="#am"/><use transform="matrix(0.05,0,0,0.05,22.950000000000003,0)" xlink:href="#aO"/><use transform="matrix(0.05,0,0,0.05,37.900000000000006,0)" xlink:href="#aT"/><use transform="matrix(0.05,0,0,0.05,47.900000000000006,0)" xlink:href="#ag"/><use transform="matrix(0.05,0,0,0.05,57.900000000000006,0)" xlink:href="#aR"/><use transform="matrix(0.05,0,0,0.05,66.9,0)" xlink:href="#al"/></g><g id="O"><use transform="matrix(0.05,0,0,0.05,0,0)" xlink:href="#aG"/><use transform="matrix(0.05,0,0,0.05,12.950000000000001,0)" xlink:href="#ag"/><use transform="matrix(0.05,0,0,0.05,22.950000000000003,0)" xlink:href="#ah"/><use transform="matrix(0.05,0,0,0.05,28.900000000000002,0)" xlink:href="#ah"/><use transform="matrix(0.05,0,0,0.05,34.85,0)" xlink:href="#ak"/><use transform="matrix(0.05,0,0,0.05,44.85,0)" xlink:href="#ap"/><use transform="matrix(0.05,0,0,0.05,54.85,0)" xlink:href="#ag"/><use transform="matrix(0.05,0,0,0.05,64.85,0)" xlink:href="#ah"/></g><path d="M30-248c87 1 191-15 191 75 0 78-77 80-158 76V0H30v-248zm33 125c57 0 124 11 124-50 0-59-68-47-124-48v98" id="aZ"/><g id="P"><use transform="matrix(0.05,0,0,0.05,0,0)" xlink:href="#aZ"/><use transform="matrix(0.05,0,0,0.05,12,0)" xlink:href="#aq"/><use transform="matrix(0.05,0,0,0.05,15.949999999999998,0)" xlink:href="#ag"/></g><path d="M47-170H22l-4-78h33" id="ba"/><g id="Q"><use transform="matrix(0.05,0,0,0.05,0,0)" xlink:href="#aJ"/><use transform="matrix(0.05,0,0,0.05,10,0)" xlink:href="#ba"/><use transform="matrix(0.05,0,0,0.05,13.4,0)" xlink:href="#ak"/><use transform="matrix(0.05,0,0,0.05,23.4,0)" xlink:href="#ae"/><use transform="matrix(0.05,0,0,0.05,32.4,0)" xlink:href="#al"/><use transform="matrix(0.05,0,0,0.05,37.4,0)" xlink:href="#af"/><use transform="matrix(0.05,0,0,0.05,47.4,0)" xlink:href="#aJ"/><use transform="matrix(0.05,0,0,0.05,57.400000000000006,0)" xlink:href="#ai"/><use transform="matrix(0.05,0,0,0.05,61.35,0)" xlink:href="#ae"/></g><path d="M145-31C134-9 116 4 85 4 32 4 16-35 15-94c0-59 17-99 70-100 32-1 48 14 60 33 0-11-1-24 2-32h30l-1 268h-32zM93-21c41 0 51-33 51-76s-8-73-50-73c-40 0-46 35-46 75s5 74 45 74" id="bb"/><g id="R"><use transform="matrix(0.05,0,0,0.05,0,0)" xlink:href="#aG"/><use transform="matrix(0.05,0,0,0.05,12.950000000000001,0)" xlink:href="#am"/><use transform="matrix(0.05,0,0,0.05,22.950000000000003,0)" xlink:href="#aK"/><use transform="matrix(0.05,0,0,0.05,35.900000000000006,0)" xlink:href="#ak"/><use transform="matrix(0.05,0,0,0.05,45.900000000000006,0)" xlink:href="#bb"/><use transform="matrix(0.05,0,0,0.05,55.900000000000006,0)" xlink:href="#af"/><use transform="matrix(0.05,0,0,0.05,65.9,0)" xlink:href="#ai"/><use transform="matrix(0.05,0,0,0.05,69.85000000000001,0)" xlink:href="#ae"/><use transform="matrix(0.05,0,0,0.05,78.85000000000001,0)" xlink:href="#ai"/><use transform="matrix(0.05,0,0,0.05,82.80000000000001,0)" xlink:href="#al"/></g><path d="M140-251c81 0 123 46 123 126C263-46 219 4 140 4 59 4 17-45 17-125s42-126 123-126zm0 227c63 0 89-41 89-101s-29-99-89-99c-61 0-89 39-89 99S79-25 140-24" id="bc"/><g id="S"><use transform="matrix(0.05,0,0,0.05,0,0)" xlink:href="#bc"/><use transform="matrix(0.05,0,0,0.05,14,0)" xlink:href="#aY"/><use transform="matrix(0.05,0,0,0.05,23,0)" xlink:href="#ak"/><use transform="matrix(0.05,0,0,0.05,33,0)" xlink:href="#ah"/><use transform="matrix(0.05,0,0,0.05,38.95,0)" xlink:href="#aq"/><use transform="matrix(0.05,0,0,0.05,42.900000000000006,0)" xlink:href="#ag"/><use transform="matrix(0.05,0,0,0.05,52.900000000000006,0)" xlink:href="#aT"/><use transform="matrix(0.05,0,0,0.05,62.900000000000006,0)" xlink:href="#aT"/><use transform="matrix(0.05,0,0,0.05,72.9,0)" xlink:href="#ai"/><use transform="matrix(0.05,0,0,0.05,76.85000000000001,0)" xlink:href="#an"/><use transform="matrix(0.05,0,0,0.05,86.85000000000001,0)" xlink:href="#ap"/></g><path d="M190 0L58-211 59 0H30v-248h39L202-35l-2-213h31V0h-41" id="bd"/><g id="T"><use transform="matrix(0.05,0,0,0.05,0,0)" xlink:href="#bd"/><use transform="matrix(0.05,0,0,0.05,12.950000000000001,0)" xlink:href="#ak"/><use transform="matrix(0.05,0,0,0.05,22.950000000000003,0)" xlink:href="#ag"/><use transform="matrix(0.05,0,0,0.05,32.95,0)" xlink:href="#ah"/></g><g id="U"><use transform="matrix(0.05,0,0,0.05,0,0)" xlink:href="#aN"/><use transform="matrix(0.05,0,0,0.05,12,0)" xlink:href="#ag"/><use transform="matrix(0.05,0,0,0.05,22,0)" xlink:href="#aO"/><use transform="matrix(0.05,0,0,0.05,36.95,0)" xlink:href="#ak"/></g><g id="V"><use transform="matrix(0.05,0,0,0.05,0,0)" xlink:href="#aS"/><use transform="matrix(0.05,0,0,0.05,9.950000000000001,0)" xlink:href="#aU"/><use transform="matrix(0.05,0,0,0.05,18.950000000000003,0)" xlink:href="#aT"/><use transform="matrix(0.05,0,0,0.05,28.950000000000003,0)" xlink:href="#ak"/></g><g id="W"><use transform="matrix(0.05,0,0,0.05,0,0)" xlink:href="#aK"/><use transform="matrix(0.05,0,0,0.05,12.950000000000001,0)" xlink:href="#ak"/><use transform="matrix(0.05,0,0,0.05,22.950000000000003,0)" xlink:href="#ae"/><use transform="matrix(0.05,0,0,0.05,31.950000000000003,0)" xlink:href="#al"/><use transform="matrix(0.05,0,0,0.05,36.95,0)" xlink:href="#aj"/></g><path d="M266 0h-40l-56-210L115 0H75L2-248h35L96-30l15-64 43-154h32l59 218 59-218h35" id="be"/><path d="M143 0L79-87 56-68V0H24v-261h32v163l83-92h37l-77 82L181 0h-38" id="bf"/><g id="X"><use transform="matrix(0.05,0,0,0.05,0,0)" xlink:href="#be"/><use transform="matrix(0.05,0,0,0.05,16.599999999999998,0)" xlink:href="#ak"/><use transform="matrix(0.05,0,0,0.05,26.599999999999994,0)" xlink:href="#ak"/><use transform="matrix(0.05,0,0,0.05,36.599999999999994,0)" xlink:href="#bf"/></g><g id="Y"><use transform="matrix(0.05,0,0,0.05,0,0)" xlink:href="#aZ"/><use transform="matrix(0.05,0,0,0.05,12,0)" xlink:href="#ag"/><use transform="matrix(0.05,0,0,0.05,22,0)" xlink:href="#aU"/><use transform="matrix(0.05,0,0,0.05,31,0)" xlink:href="#aq"/><use transform="matrix(0.05,0,0,0.05,34.95,0)" xlink:href="#am"/><use transform="matrix(0.05,0,0,0.05,44.95,0)" xlink:href="#ag"/><use transform="matrix(0.05,0,0,0.05,54.95,0)" xlink:href="#aJ"/></g><g id="Z"><use transform="matrix(0.05,0,0,0.05,0,0)" xlink:href="#aG"/><use transform="matrix(0.05,0,0,0.05,12.950000000000001,0)" xlink:href="#ag"/><use transform="matrix(0.05,0,0,0.05,22.950000000000003,0)" xlink:href="#ah"/><use transform="matrix(0.05,0,0,0.05,28.900000000000002,0)" xlink:href="#ah"/><use transform="matrix(0.05,0,0,0.05,34.85,0)" xlink:href="#ak"/><use transform="matrix(0.05,0,0,0.05,44.85,0)" xlink:href="#ap"/><use transform="matrix(0.05,0,0,0.05,54.85,0)" xlink:href="#ag"/><use transform="matrix(0.05,0,0,0.05,64.85,0)" xlink:href="#ah"/></g><g id="aa"><use transform="matrix(0.05,0,0,0.05,0,0)" xlink:href="#aG"/><use transform="matrix(0.05,0,0,0.05,12.950000000000001,0)" xlink:href="#ag"/><use transform="matrix(0.05,0,0,0.05,22.950000000000003,0)" xlink:href="#aO"/><use transform="matrix(0.05,0,0,0.05,37.900000000000006,0)" xlink:href="#aT"/><use transform="matrix(0.05,0,0,0.05,47.900000000000006,0)" xlink:href="#af"/><use transform="matrix(0.05,0,0,0.05,57.900000000000006,0)" xlink:href="#ae"/></g><g id="ab"><use transform="matrix(0.05,0,0,0.05,0,0)" xlink:href="#aK"/><use transform="matrix(0.05,0,0,0.05,12.950000000000001,0)" xlink:href="#ak"/><use transform="matrix(0.05,0,0,0.05,22.950000000000003,0)" xlink:href="#ae"/><use transform="matrix(0.05,0,0,0.05,31.950000000000003,0)" xlink:href="#al"/><use transform="matrix(0.05,0,0,0.05,36.95,0)" xlink:href="#ah"/><use transform="matrix(0.05,0,0,0.05,42.900000000000006,0)" xlink:href="#ai"/><use transform="matrix(0.05,0,0,0.05,46.85000000000001,0)" xlink:href="#aR"/><use transform="matrix(0.05,0,0,0.05,55.85,0)" xlink:href="#aR"/><use transform="matrix(0.05,0,0,0.05,64.85000000000001,0)" xlink:href="#ai"/><use transform="matrix(0.05,0,0,0.05,68.80000000000001,0)" xlink:href="#am"/><use transform="matrix(0.05,0,0,0.05,78.80000000000001,0)" xlink:href="#an"/><use transform="matrix(0.05,0,0,0.05,88.80000000000001,0)" xlink:href="#ae"/></g><g id="ac"><use transform="matrix(0.05,0,0,0.05,0,0)" xlink:href="#aZ"/><use transform="matrix(0.05,0,0,0.05,12,0)" xlink:href="#ah"/><use transform="matrix(0.05,0,0,0.05,17.95,0)" xlink:href="#ak"/><use transform="matrix(0.05,0,0,0.05,27.950000000000003,0)" xlink:href="#aJ"/><use transform="matrix(0.05,0,0,0.05,37.95,0)" xlink:href="#ak"/><use transform="matrix(0.05,0,0,0.05,47.95,0)" xlink:href="#al"/><use transform="matrix(0.05,0,0,0.05,52.95,0)" xlink:href="#ak"/><use transform="matrix(0.05,0,0,0.05,62.95,0)" xlink:href="#ah"/><use transform="matrix(0.05,0,0,0.05,68.9,0)" xlink:href="#aO"/><use transform="matrix(0.05,0,0,0.05,83.85000000000001,0)" xlink:href="#ai"/><use transform="matrix(0.05,0,0,0.05,87.80000000000001,0)" xlink:href="#an"/><use transform="matrix(0.05,0,0,0.05,97.80000000000001,0)" xlink:href="#ag"/><use transform="matrix(0.05,0,0,0.05,107.80000000000001,0)" xlink:href="#aJ"/><use transform="matrix(0.05,0,0,0.05,117.80000000000001,0)" xlink:href="#ak"/><use transform="matrix(0.05,0,0,0.05,127.80000000000001,0)" xlink:href="#ae"/></g></defs></g></svg>